<svg xmlns="http://www.w3.org/2000/svg" viewBox="0 0 800 800" role="img" aria-labelledby="t-atornillador-inalambrico-12v">
  <title id="t-atornillador-inalambrico-12v">Atornillador inalámbrico 12V Bosch</title>
  <rect width="800" height="800" fill="#f5f2ea"/>
  <rect x="0" y="0" width="800" height="800" fill="none" stroke="#d8d2c2" stroke-width="2"/>
  <!-- corner crosshair marks (pliego técnico feel) -->
  <g stroke="#d8d2c2" stroke-width="2" fill="none">
    <path d="M 20 60 L 60 60 M 60 20 L 60 60"/>
    <path d="M 780 60 L 740 60 M 740 20 L 740 60"/>
    <path d="M 20 740 L 60 740 M 60 780 L 60 740"/>
    <path d="M 780 740 L 740 740 M 740 780 L 740 740"/>
  </g>
  
    <g transform="translate(0,0)">
      <rect x="160" y="120" width="260" height="140" rx="20" fill="#171513"/>
      <rect x="170" y="160" width="120" height="100" rx="8" fill="#5d544a"/>
      <rect x="420" y="170" width="120" height="40" fill="#171513"/>
      <rect x="220" y="260" width="100" height="180" rx="14" fill="#171513"/>
      <rect x="230" y="280" width="80" height="14" fill="#5d544a"/>
      <rect x="230" y="305" width="80" height="14" fill="#5d544a"/>
      <rect x="320" y="320" width="60" height="40" fill="#c28e3f"/>
      <text x="540" y="240" text-anchor="middle" font-family="JetBrains Mono, monospace" font-size="22" fill="#c28e3f" font-weight="700">12V</text>
    </g>
</svg>
